<svg width="459" height="540" viewBox="0 0 459 540" fill="none" xmlns="http://www.w3.org/2000/svg">
<path d="M458.11 4.54057L457.86 5.97056C457.832 6.12139 457.772 6.2639 457.683 6.38823C457.595 6.51256 457.482 6.61574 457.35 6.69057C439.037 17.0172 418.88 24.5506 396.88 29.2906C385.494 31.7506 377.45 33.4239 372.75 34.3106C365.117 27.0639 359.18 21.9206 354.94 18.8806C353.98 18.1939 350.274 16.0072 343.82 12.3206C338.96 9.54057 334.68 8.33056 329.39 6.06056C327.504 5.25389 324.92 4.31723 321.64 3.25056C319.114 2.4239 316.5 1.56388 313.8 0.670546C316.34 0.210546 318.73 -0.0127699 320.97 0.00056342C371.304 0.213897 414.804 0.250549 451.47 0.110549C453.464 0.103882 455.454 0.127223 457.44 0.180556C457.585 0.185536 457.722 0.245097 457.824 0.347182C457.926 0.449268 457.985 0.58629 457.99 0.730574L458.11 4.54057Z" fill="#FDC509"/>
<path d="M313.8 0.670478C316.5 1.56381 319.114 2.42383 321.64 3.25049C324.92 4.31716 327.504 5.25383 329.39 6.06049C334.68 8.33049 338.96 9.5405 343.82 12.3205C350.274 16.0072 353.98 18.1938 354.94 18.8805C359.18 21.9205 365.117 27.0638 372.75 34.3105C375.577 38.4505 378.604 42.4238 381.83 46.2305C383.057 47.6772 385.537 51.5605 389.27 57.8805L396.06 70.0305C396.13 70.1583 396.239 70.2603 396.373 70.3215C396.506 70.3827 396.656 70.3999 396.8 70.3705C419.49 66.0905 437.64 59.9005 457.92 53.4905L457.96 75.2105C443.294 83.5838 428.11 90.7371 412.41 96.6705C409.424 94.7438 406.304 92.9505 403.05 91.2905C390.21 84.7305 377.88 77.4205 364.48 71.9505C353.92 67.2305 343.067 63.2405 331.92 59.9805C321.187 56.8338 313.174 54.6038 307.88 53.2905C306.767 53.0172 305.637 52.8372 304.49 52.7505C304.349 52.7391 304.208 52.7713 304.085 52.8427C303.962 52.9141 303.863 53.0214 303.8 53.1505L301.91 57.0805C302.157 55.1338 302.094 53.2505 301.72 51.4305C301.681 51.2523 301.606 51.0824 301.5 50.9305L301.17 50.4305L301.45 0.900489C301.452 0.832197 301.466 0.764839 301.494 0.702246C301.521 0.639654 301.561 0.583042 301.61 0.535681C301.659 0.488321 301.717 0.451129 301.781 0.426215C301.844 0.4013 301.912 0.389153 301.98 0.390479L313.8 0.670478Z" fill="#FD8005"/>
<path d="M457.98 36.2305C435.55 45.7705 412.84 52.1705 389.27 57.8805C385.537 51.5605 383.057 47.6772 381.83 46.2305C378.604 42.4239 375.577 38.4505 372.75 34.3105C377.45 33.4238 385.494 31.7505 396.88 29.2905C418.88 24.5505 439.037 17.0172 457.35 6.69052C457.482 6.61569 457.596 6.51252 457.684 6.38818C457.772 6.26385 457.832 6.12134 457.86 5.97052L458.11 4.54053L457.98 36.2305Z" fill="#FCB10A"/>
<path d="M457.98 36.2307L457.92 53.4907C437.64 59.9007 419.49 66.0907 396.8 70.3707C396.655 70.4001 396.505 70.3829 396.372 70.3217C396.239 70.2605 396.13 70.1585 396.06 70.0307L389.27 57.8807C412.84 52.1707 435.55 45.7707 457.98 36.2307Z" fill="#FB9708"/>
<path d="M245.16 50.0405C244.92 57.0405 244.487 62.6005 243.86 66.7205C239.75 93.7505 224.43 100.88 198.77 98.8304L198.6 93.4504C198.595 93.309 198.535 93.1753 198.434 93.0781C198.333 92.9808 198.199 92.9278 198.06 92.9305L143.01 93.2104L142.48 92.8304L142.57 50.4504C142.57 50.3178 142.623 50.1907 142.716 50.0969C142.81 50.0031 142.937 49.9504 143.07 49.9504L245.16 50.0405Z" fill="#F43702"/>
<path d="M285.14 50.2205C285.06 58.0205 285 65.8505 284.96 73.7105C284.87 89.1905 279.31 100.911 269.83 113.151L198.53 113.241L198.71 106.231L198.77 98.8305C224.43 100.881 239.75 93.7505 243.86 66.7205C244.487 62.6005 244.92 57.0405 245.16 50.0405L285.14 50.2205Z" fill="#D50E09"/>
<path d="M301.17 50.4305L301.5 50.9305C301.606 51.0824 301.68 51.2522 301.72 51.4305C302.093 53.2505 302.157 55.1338 301.91 57.0804L301.65 113.18L269.83 113.15C279.31 100.91 284.87 89.1904 284.96 73.7104C285 65.8504 285.06 58.0205 285.14 50.2205L301.17 50.4305Z" fill="#B40C08"/>
<path d="M364.48 71.9505C361.574 79.2638 358.63 86.5605 355.65 93.8405C352.85 100.651 349.58 107.721 345.81 113.221C339.24 122.761 332.19 130.931 325.76 139.971C325.732 140.01 325.716 140.056 325.713 140.105C325.71 140.153 325.721 140.201 325.744 140.244C325.766 140.286 325.801 140.322 325.843 140.346C325.884 140.37 325.932 140.382 325.98 140.381L345.5 140.481H302.13C301.998 140.481 301.871 140.427 301.777 140.331C301.683 140.236 301.63 140.106 301.63 139.971L301.65 113.181L301.91 57.0805L303.8 53.1505C303.863 53.0214 303.962 52.9141 304.085 52.8427C304.208 52.7713 304.349 52.7392 304.49 52.7505C305.637 52.8372 306.767 53.0172 307.88 53.2905C313.174 54.6039 321.187 56.8339 331.92 59.9805C343.067 63.2405 353.92 67.2305 364.48 71.9505Z" fill="#FD5303"/>
<path d="M364.48 71.9504C377.88 77.4204 390.21 84.7305 403.05 91.2905C406.303 92.9505 409.423 94.7438 412.41 96.6704L427.03 106.28C416.937 116.06 408.863 127.244 402.81 139.83C402.787 139.879 402.776 139.932 402.778 139.986C402.781 140.039 402.797 140.091 402.824 140.137C402.852 140.183 402.891 140.221 402.938 140.248C402.984 140.274 403.036 140.289 403.09 140.29L411.43 140.49L345.5 140.48L325.98 140.38C325.932 140.382 325.884 140.37 325.842 140.346C325.8 140.321 325.766 140.286 325.743 140.243C325.72 140.201 325.71 140.153 325.713 140.105C325.716 140.056 325.732 140.01 325.76 139.97C332.19 130.93 339.24 122.76 345.81 113.22C349.58 107.72 352.85 100.65 355.65 93.8405C358.63 86.5605 361.573 79.2638 364.48 71.9504Z" fill="#F43702"/>
<path d="M457.96 75.2107L457.89 106.061L439.69 116.351L427.03 106.281L412.41 96.6707C428.11 90.7374 443.293 83.584 457.96 75.2107Z" fill="#FD5303"/>
<path d="M101.18 92.8306C109.79 103.171 119.01 112.481 131.45 118.091C137.69 120.904 145.07 122.914 153.59 124.121C168.63 126.247 183.49 125.277 198.17 121.211L197.98 150.451C180.494 157.277 162.604 158.677 144.31 154.651C132.564 152.064 121.264 148.154 110.41 142.921C95.6302 135.787 83.3169 125.654 73.4702 112.521C66.1835 102.794 61.4269 96.2639 59.2002 92.9306L101.18 92.8306Z" fill="#FD8005"/>
<path d="M142.48 92.8306L143.01 93.2106C160.71 100.861 179.36 103.951 198.71 106.231L198.53 113.241L198.17 121.211C183.49 125.277 168.63 126.247 153.59 124.121C145.07 122.914 137.69 120.904 131.45 118.091C119.01 112.481 109.79 103.171 101.18 92.8306H142.48Z" fill="#FB9708"/>
<path d="M198.77 98.8305L198.71 106.231C179.36 103.951 160.71 100.861 143.01 93.2105L198.06 92.9305C198.199 92.9279 198.333 92.9809 198.434 93.0782C198.535 93.1754 198.595 93.3091 198.6 93.4505L198.77 98.8305Z" fill="#FCB10A"/>
<path d="M59.2001 92.9307C61.4268 96.264 66.1834 102.794 73.4701 112.521C83.3168 125.654 95.6301 135.787 110.41 142.921C121.263 148.154 132.563 152.064 144.31 154.651C162.603 158.677 180.493 157.277 197.98 150.451L197.87 163.351C197.869 163.393 197.859 163.434 197.842 163.472C197.825 163.511 197.8 163.545 197.769 163.574C197.739 163.603 197.703 163.625 197.663 163.64C197.624 163.655 197.582 163.662 197.54 163.661C182.733 162.981 168.72 163.031 155.5 163.811C149.45 164.171 143.05 165.731 135.95 167.761C132.61 168.721 129.377 169.571 126.25 170.311L87.4301 171.461C76.4701 163.114 66.0734 154.387 56.2401 145.281C43.0501 133.081 33.0101 120.891 24.3501 106.021C27.6601 103.611 31.0401 100.991 34.4801 99.1907C42.2134 95.164 50.4534 93.0773 59.2001 92.9307Z" fill="#FD5303"/>
<path d="M457.89 106.061L457.98 132.371L457.03 134.881C456.985 135 456.908 135.104 456.807 135.183C456.707 135.262 456.587 135.312 456.46 135.327C456.334 135.342 456.205 135.323 456.089 135.271C455.972 135.218 455.873 135.135 455.8 135.031C451.107 128.424 445.737 122.197 439.69 116.351L457.89 106.061Z" fill="#F43702"/>
<path d="M427.03 106.281L439.69 116.351C445.737 122.197 451.107 128.424 455.8 135.031C455.873 135.135 455.973 135.218 456.089 135.271C456.205 135.323 456.334 135.342 456.46 135.327C456.587 135.312 456.707 135.262 456.807 135.183C456.908 135.104 456.985 135 457.03 134.881L457.98 132.371L458.01 139.821C458.01 139.958 457.956 140.091 457.861 140.188C457.765 140.286 457.635 140.341 457.5 140.341L411.43 140.491L403.09 140.291C403.037 140.289 402.984 140.274 402.938 140.248C402.891 140.221 402.852 140.183 402.825 140.137C402.797 140.091 402.781 140.039 402.778 139.986C402.776 139.932 402.787 139.879 402.81 139.831C408.863 127.244 416.937 116.061 427.03 106.281Z" fill="#D50E09"/>
<path d="M24.3502 106.021C33.0102 120.891 43.0502 133.081 56.2402 145.281C66.0735 154.387 76.4702 163.114 87.4302 171.461C77.8235 171.234 68.3669 170.331 59.0602 168.751C48.6302 166.991 39.2702 163.921 30.5902 159.701C23.3369 156.167 17.2169 150.381 12.2302 142.341C11.7502 141.561 11.2302 141.291 10.7602 140.801C10.6466 140.684 10.5586 140.543 10.5018 140.388C10.445 140.233 10.4206 140.067 10.4302 139.901C10.5369 138.074 10.2169 136.477 9.47021 135.111C10.2502 128.497 12.3136 122.384 15.6602 116.771C16.8736 114.731 19.7702 111.147 24.3502 106.021Z" fill="#F43702"/>
<path d="M87.4302 171.461L126.25 170.311L116.23 175.061C116.024 175.014 115.79 175.041 115.53 175.141C111.924 176.514 107.84 178.194 103.28 180.181C101.614 180.901 97.5336 182.587 91.0403 185.241C85.1469 187.647 79.2969 190.444 73.4902 193.631L59.6302 202.291C46.6202 199.851 34.5802 196.481 23.8002 188.841C19.0136 185.454 14.1602 180.351 9.24023 173.531L9.47025 135.111C10.2169 136.477 10.5369 138.074 10.4302 139.901C10.4207 140.067 10.4451 140.234 10.5019 140.388C10.5587 140.543 10.6467 140.684 10.7603 140.801C11.2303 141.291 11.7503 141.561 12.2303 142.341C17.2169 150.381 23.3369 156.167 30.5902 159.701C39.2702 163.921 48.6302 166.991 59.0602 168.751C68.3669 170.331 77.8236 171.234 87.4302 171.461Z" fill="#D50E09"/>
<path d="M59.6302 202.291C56.3902 204.857 54.4302 206.551 53.7502 207.371C47.9702 214.404 45.0069 222.55 44.8602 231.81C44.3269 242.817 46.4735 253.171 51.3002 262.871C53.0002 266.281 55.6102 269.08 57.9502 272.25C54.2636 272.244 50.5835 272.271 46.9102 272.331C44.1602 272.381 41.7102 271.36 39.0502 271.82C38.4829 271.919 37.9013 271.903 37.3402 271.771C33.1402 270.801 29.2902 270.131 25.8902 268.621C14.2102 263.447 8.56356 254.271 8.95023 241.091C9.04356 237.831 9.09021 236.157 9.09021 236.07C9.10354 215.304 9.15354 194.457 9.2402 173.531C14.1602 180.351 19.0135 185.454 23.8002 188.841C34.5802 196.481 46.6202 199.851 59.6302 202.291Z" fill="#B40C08"/>
<path d="M116.23 175.061L115.53 183.811C115.519 183.956 115.538 184.103 115.586 184.241C115.634 184.379 115.709 184.506 115.808 184.613C115.907 184.72 116.026 184.805 116.159 184.863C116.292 184.921 116.435 184.951 116.58 184.951H165.55C165.746 184.951 165.935 185.029 166.074 185.167C166.212 185.306 166.29 185.494 166.29 185.691L166.16 210.281L165.8 213.171C165.793 213.229 165.773 213.285 165.741 213.334C165.71 213.384 165.667 213.425 165.617 213.456C165.567 213.487 165.511 213.506 165.453 213.512C165.394 213.518 165.335 213.511 165.28 213.491C155.98 210.277 146.384 206.774 136.49 202.981C124.35 198.321 113.16 195.421 101.01 195.021C94.3836 194.801 86.6902 194.947 77.9302 195.461C75.9302 195.041 74.4502 194.431 73.4902 193.631C79.2969 190.444 85.1469 187.647 91.0403 185.241C97.5336 182.587 101.614 180.901 103.28 180.181C107.84 178.194 111.924 176.514 115.53 175.141C115.79 175.041 116.024 175.014 116.23 175.061Z" fill="#FDC509"/>
<path d="M166.16 210.281L166.47 230.241C165.83 234.054 165.697 237.537 166.07 240.691L165.34 243.031C164.927 243.151 164.34 242.864 163.58 242.171C163.408 242.011 163.216 241.877 163.01 241.771C155.49 237.941 149.23 233.451 141.81 229.171C133.07 224.137 118.614 215.701 98.4402 203.861C93.5002 200.961 86.6635 198.161 77.9302 195.461C86.6902 194.947 94.3835 194.801 101.01 195.021C113.16 195.421 124.35 198.321 136.49 202.981C146.384 206.774 155.98 210.277 165.28 213.491C165.335 213.511 165.394 213.518 165.453 213.512C165.511 213.506 165.567 213.487 165.617 213.456C165.667 213.425 165.71 213.384 165.741 213.334C165.773 213.285 165.793 213.229 165.8 213.171L166.16 210.281Z" fill="#FCB10A"/>
<path d="M73.4903 193.631C74.4503 194.431 75.9303 195.041 77.9303 195.461C86.6637 198.161 93.5003 200.961 98.4403 203.861C118.614 215.701 133.07 224.137 141.81 229.171C149.23 233.451 155.49 237.941 163.01 241.771C163.216 241.877 163.408 242.011 163.58 242.171C164.34 242.864 164.927 243.151 165.34 243.031C165.694 251.404 165.71 259.897 165.39 268.511C165.384 268.564 165.44 269.107 165.56 270.141C165.627 270.794 165.514 271.534 165.22 272.361L142.01 272.251L144.1 272.071C144.137 272.069 144.173 272.055 144.201 272.031C144.229 272.006 144.247 271.973 144.253 271.936C144.259 271.9 144.252 271.862 144.233 271.83C144.214 271.798 144.185 271.773 144.15 271.761C106.3 255.641 78.1004 244.851 44.8604 231.811C45.007 222.551 47.9703 214.404 53.7503 207.371C54.4303 206.551 56.3903 204.857 59.6303 202.291L73.4903 193.631Z" fill="#E15E05"/>
<path d="M238.59 230.27C220.64 240.02 200.94 245.97 180.9 249.64L166.07 240.69C165.697 237.537 165.83 234.054 166.47 230.24L238.59 230.27Z" fill="#B9D84B"/>
<path d="M302.41 239.291C272.18 249.001 238 255.081 204.72 263.431C202.7 262.477 201.327 261.737 200.6 261.211C197.527 258.951 194.22 257.091 190.68 255.631C188.954 254.917 185.694 252.921 180.9 249.641C200.94 245.971 220.64 240.021 238.59 230.271L301.86 230.231C301.997 230.231 302.127 230.284 302.225 230.379C302.322 230.475 302.378 230.605 302.38 230.741L302.41 239.291Z" fill="#9EC744"/>
<path d="M44.8604 231.811C78.1004 244.851 106.3 255.641 144.15 271.761C144.185 271.773 144.214 271.798 144.233 271.83C144.252 271.862 144.259 271.9 144.253 271.936C144.247 271.973 144.229 272.006 144.201 272.031C144.173 272.055 144.137 272.069 144.1 272.071L142.01 272.251H57.9504C55.6104 269.081 53.0003 266.281 51.3003 262.871C46.4737 253.171 44.327 242.817 44.8604 231.811Z" fill="#C14704"/>
<path d="M302.41 239.291L302.33 251.051L302.25 253.781C302.247 253.936 302.207 254.089 302.135 254.228C302.062 254.366 301.958 254.487 301.83 254.581C292.05 261.574 282.387 266.63 272.84 269.75C260.967 273.637 249.087 277.521 237.2 281.401L228.57 276.81L204.72 263.431C238 255.081 272.18 249.001 302.41 239.291Z" fill="#6FB33D"/>
<path d="M180.9 249.641C185.694 252.921 188.954 254.917 190.68 255.631C194.22 257.091 197.527 258.951 200.6 261.211C201.327 261.737 202.7 262.477 204.72 263.431L228.57 276.811C226.057 277.431 223.957 277.617 222.27 277.371C205.924 274.964 189.507 273.217 173.02 272.131C170.607 271.971 168.18 272.087 165.74 272.481C165.567 272.441 165.394 272.401 165.22 272.361C165.514 271.534 165.627 270.794 165.56 270.141C165.44 269.107 165.384 268.564 165.39 268.511C165.71 259.897 165.694 251.404 165.34 243.031L166.07 240.691L180.9 249.641Z" fill="#3E8832"/>
<path d="M302.66 278.091C302.48 278.151 302.344 278.164 302.25 278.13L285.72 278.351C285.587 278.353 285.46 278.408 285.366 278.503C285.273 278.599 285.22 278.727 285.22 278.861L285.1 293.051L284.92 288.971C284.918 288.926 284.903 288.883 284.876 288.847C284.849 288.812 284.812 288.785 284.77 288.771C284.728 288.757 284.682 288.756 284.639 288.769C284.597 288.781 284.558 288.806 284.53 288.841C281.124 292.854 277.267 296.434 272.96 299.581L268.9 297.491L251.87 288.951L237.2 281.401C249.087 277.521 260.967 273.637 272.84 269.75C282.387 266.63 292.05 261.574 301.83 254.581C301.958 254.487 302.062 254.366 302.135 254.228C302.207 254.089 302.247 253.936 302.25 253.781L302.33 251.051L302.66 278.091Z" fill="#51A746"/>
<path d="M228.57 276.811L237.2 281.401L251.87 288.951C232.51 295.641 215.41 298.621 195.07 298.041C185.317 297.767 175.547 297.291 165.76 296.611L165.74 272.481C168.18 272.087 170.607 271.971 173.02 272.131C189.507 273.217 205.924 274.964 222.27 277.371C223.957 277.617 226.057 277.431 228.57 276.811Z" fill="#138B74"/>
<path d="M302.25 278.131C302.544 291.404 303.787 304.594 305.98 317.701C298.66 314.654 291.737 310.877 285.21 306.371C285.097 306.017 285.044 305.657 285.05 305.291L285.1 293.051L285.22 278.861C285.22 278.727 285.273 278.599 285.366 278.503C285.46 278.408 285.587 278.353 285.72 278.351L302.25 278.131Z" fill="#B9D84B"/>
<path d="M302.66 278.091C302.874 278.351 303.144 278.481 303.47 278.481C317.484 278.447 331.454 278.404 345.38 278.351C348.97 297.861 351.16 316.261 348.91 335.831L342.23 333.291L310.19 319.551L305.98 317.701C303.787 304.594 302.544 291.404 302.25 278.131C302.344 278.164 302.48 278.151 302.66 278.091Z" fill="#91D95B"/>
<path d="M372.67 278.341C373.284 282.667 373.994 286.927 374.8 291.121C377.407 304.647 379.504 318.251 381.09 331.931C381.72 337.391 382.64 342.631 383.48 348.001L371.93 344.501L348.91 335.831C351.16 316.261 348.97 297.861 345.38 278.351L372.67 278.341Z" fill="#66C96E"/>
<path d="M430.47 278.361L427.18 278.791C427.051 278.81 426.935 278.878 426.853 278.98C426.772 279.082 426.731 279.21 426.74 279.341C428.15 299.531 428.81 317.271 426.52 336.871C414.11 343.311 400.12 348.051 386.32 348.451L383.48 348.001C382.64 342.631 381.72 337.391 381.09 331.931C379.504 318.251 377.407 304.647 374.8 291.121C373.994 286.927 373.284 282.667 372.67 278.341L430.47 278.361Z" fill="#47B874"/>
<path d="M430.47 278.361C441.23 279.521 449.1 284.811 454.08 294.231C455.233 296.417 456.033 298.797 456.48 301.371C456.947 304.037 457.137 306.544 457.05 308.891C455.017 310.737 453.367 313.231 452.1 316.371C445.513 325.524 436.987 332.357 426.52 336.871C428.81 317.271 428.15 299.531 426.74 279.341C426.731 279.21 426.771 279.082 426.853 278.98C426.934 278.878 427.051 278.81 427.18 278.791L430.47 278.361Z" fill="#24A37C"/>
<path d="M285.1 293.051L285.05 305.291L277.95 302.321L272.96 299.581C277.267 296.434 281.124 292.854 284.53 288.841C284.559 288.806 284.597 288.781 284.64 288.769C284.682 288.756 284.728 288.757 284.77 288.771C284.812 288.785 284.85 288.812 284.876 288.848C284.903 288.883 284.919 288.926 284.92 288.971L285.1 293.051Z" fill="#0D6F68"/>
<path d="M251.87 288.95L268.9 297.49C253.35 305.63 237.98 311.24 220.33 312.18C202.82 313.12 184.85 311.62 166.59 308.53C166.449 308.507 166.319 308.441 166.215 308.341C166.112 308.241 166.04 308.112 166.01 307.97L165.78 306.87L165.76 296.61C175.547 297.29 185.317 297.767 195.07 298.04C215.41 298.62 232.51 295.64 251.87 288.95Z" fill="#0D6F68"/>
<path d="M272.96 299.58L277.95 302.32C268.63 306.787 261.46 309.924 256.44 311.73C227.42 322.17 196.72 323.04 166.65 316.01C166.518 315.98 166.396 315.916 166.295 315.825C166.194 315.734 166.116 315.619 166.07 315.49L165.78 314.62V306.87L166.01 307.97C166.04 308.112 166.112 308.241 166.215 308.341C166.319 308.441 166.449 308.507 166.59 308.53C184.85 311.62 202.82 313.12 220.33 312.18C237.98 311.24 253.35 305.63 268.9 297.49L272.96 299.58Z" fill="#0D6562"/>
<path d="M277.95 302.321L285.05 305.291C285.044 305.657 285.097 306.017 285.21 306.371L285.27 307.241C269.14 315.921 252.85 323.121 234.8 326.681C220.014 329.601 203.45 330.587 185.11 329.641C179.944 329.374 173.514 328.444 165.82 326.851L165.78 314.621L166.07 315.491C166.116 315.619 166.194 315.734 166.295 315.825C166.396 315.916 166.518 315.98 166.65 316.011C196.72 323.041 227.42 322.171 256.44 311.731C261.46 309.924 268.63 306.787 277.95 302.321Z" fill="#085A66"/>
<path d="M305.98 317.701L310.19 319.551C309.737 324.204 308.924 328.754 307.75 333.201C305.83 340.501 301.32 341.541 294.93 343.601C292.27 343.781 288.65 343.171 286.15 344.211L285.41 343.611L285.31 320.761L285.27 307.241L285.21 306.371C291.737 310.877 298.66 314.654 305.98 317.701Z" fill="#9EC744"/>
<path d="M285.27 307.24L285.31 320.76C281.043 325.08 277.617 327.94 275.03 329.34C261.29 336.774 246.91 340.33 231.89 340.01C216.963 339.69 202.047 339.897 187.14 340.63C179.947 340.99 172.83 340.497 165.79 339.15L165.82 326.85C173.513 328.444 179.943 329.374 185.11 329.64C203.45 330.587 220.013 329.6 234.8 326.68C252.85 323.12 269.14 315.92 285.27 307.24Z" fill="#094A57"/>
<path d="M457.05 308.891L457.08 315.981C454.687 326.534 451.457 335.394 447.39 342.561C442.57 351.047 435.72 360.154 426.84 369.881C412.08 386.061 393 397.051 370.56 395.381C370.494 395.375 370.428 395.383 370.365 395.404C370.302 395.425 370.244 395.458 370.195 395.502C370.145 395.546 370.105 395.6 370.077 395.66C370.049 395.72 370.033 395.784 370.03 395.851L369.86 401.381L369.74 395.891L369.79 388.331C383.264 382.377 392.687 377.934 398.06 375.001C421.5 362.221 440.09 340.221 452.1 316.371C453.367 313.231 455.017 310.737 457.05 308.891Z" fill="#085A66"/>
<path d="M457.08 315.981L457.1 359.001C452.1 370.534 446.394 380.167 439.98 387.901C431.42 398.221 419.82 406.934 405.18 414.041C393.86 419.531 382.06 423.941 370.53 428.991C370.396 429.049 370.28 429.141 370.194 429.259C370.108 429.377 370.055 429.516 370.04 429.661L369.82 431.881L369.86 401.381L370.03 395.851C370.033 395.785 370.049 395.72 370.077 395.66C370.105 395.6 370.145 395.546 370.195 395.502C370.244 395.459 370.302 395.425 370.365 395.404C370.428 395.383 370.494 395.375 370.56 395.381C393 397.051 412.08 386.061 426.84 369.881C435.72 360.154 442.57 351.047 447.39 342.561C451.457 335.394 454.687 326.534 457.08 315.981Z" fill="#094A57"/>
<path d="M452.1 316.371C440.09 340.221 421.5 362.221 398.06 375.001C392.687 377.934 383.263 382.377 369.79 388.331L369.93 367.821C375.957 365.554 381.573 362.491 386.78 358.631C388.84 357.101 391.75 353.811 389.66 351.181C388.66 349.927 387.547 349.017 386.32 348.451C400.12 348.051 414.11 343.311 426.52 336.871C436.987 332.357 445.513 325.524 452.1 316.371Z" fill="#0D6F68"/>
<path d="M285.31 320.76L285.41 343.611L166.07 343.741C166.007 343.741 165.944 343.728 165.885 343.702C165.827 343.677 165.774 343.64 165.73 343.593C165.686 343.546 165.652 343.491 165.63 343.43C165.608 343.37 165.597 343.305 165.6 343.241L165.79 339.151C172.83 340.497 179.947 340.99 187.14 340.63C202.047 339.897 216.963 339.69 231.89 340.01C246.91 340.33 261.29 336.774 275.03 329.341C277.617 327.941 281.043 325.08 285.31 320.76Z" fill="#083747"/>
<path d="M342.23 333.291C340 335.641 335.26 340.99 337 344.75L321.43 344.471L304.91 343.931L294.93 343.601C301.32 341.541 305.83 340.5 307.75 333.201C308.924 328.754 309.737 324.204 310.19 319.551L342.23 333.291Z" fill="#6FB33D"/>
<path d="M342.23 333.291L348.91 335.831L371.93 344.5C370.41 346.647 369.684 349.344 369.75 352.591C369.917 350.444 369.777 348.624 369.33 347.13C369.191 346.662 368.907 346.251 368.519 345.954C368.131 345.658 367.659 345.492 367.17 345.481L347.72 345.06L337 344.75C335.26 340.99 340 335.641 342.23 333.291Z" fill="#3E8832"/>
<path d="M294.93 343.601L304.91 343.931C302.457 350.071 299.12 357.417 294.9 365.971C289.174 377.584 281.674 387.301 272.4 395.121C277.16 389.174 280.854 383.334 283.48 377.601C285.42 373.361 286.01 368.651 286.05 363.471C286.104 357.051 286.137 350.631 286.15 344.211C288.65 343.171 292.27 343.781 294.93 343.601Z" fill="#B9D84B"/>
<path d="M321.43 344.471C313.997 363.151 303.497 379.941 289.93 394.841C287.484 396.181 284.937 397.387 282.29 398.461C279.364 399.654 276.79 400.791 274.57 401.871C269.61 404.291 264.47 406.334 259.15 408.001L272.4 395.121C281.674 387.301 289.174 377.584 294.9 365.971C299.12 357.417 302.457 350.071 304.91 343.931L321.43 344.471Z" fill="#91D95B"/>
<path d="M337 344.75L347.72 345.06L334 371.7L324.16 376.85L289.93 394.84C303.497 379.94 313.997 363.15 321.43 344.47L337 344.75Z" fill="#66C96E"/>
<path d="M371.93 344.5L383.48 348L386.32 348.451C387.547 349.017 388.66 349.927 389.66 351.181C391.75 353.811 388.84 357.1 386.78 358.63C381.573 362.49 375.957 365.554 369.93 367.82L369.58 364.841L369.35 354.601L369.75 352.591C369.683 349.344 370.41 346.647 371.93 344.5Z" fill="#195239"/>
<path d="M369.75 352.591L369.35 354.601L334 371.701L347.72 345.061L367.17 345.481C367.659 345.492 368.131 345.658 368.519 345.954C368.907 346.251 369.191 346.663 369.33 347.131C369.777 348.624 369.917 350.444 369.75 352.591Z" fill="#47B874"/>
<path d="M369.35 354.601L369.58 364.841C359.094 374.247 348.404 383.401 337.51 392.301C318.67 407.681 300.67 422.741 287.46 443.421L240.63 443.391C263.26 429.261 279.93 415.741 302.14 397.141C308.934 391.447 316.274 384.684 324.16 376.851L334 371.701L369.35 354.601Z" fill="#209D93"/>
<path d="M457.1 359V416.901C457.1 417.226 457.063 417.555 456.99 417.88C455.13 425.927 450.527 431.751 443.18 435.351C435.42 439.151 426.23 441.351 415.61 441.951C415.317 441.97 415.027 442.011 414.74 442.07C412.42 442.604 409.077 442.891 404.71 442.931C393.25 443.031 381.707 443.017 370.08 442.891L369.82 431.88L370.04 429.661C370.055 429.515 370.108 429.377 370.194 429.259C370.28 429.141 370.396 429.049 370.53 428.991C382.06 423.941 393.86 419.531 405.18 414.041C419.82 406.934 431.42 398.221 439.98 387.901C446.394 380.167 452.1 370.534 457.1 359Z" fill="#083747"/>
<path d="M369.93 367.821L369.79 388.331L369.74 395.891C362.754 400.677 355.957 405.714 349.35 411.001C337.85 420.207 328.034 431.024 319.9 443.451L298.19 443.461L287.46 443.421C300.67 422.741 318.67 407.681 337.51 392.301C348.404 383.401 359.094 374.247 369.58 364.841L369.93 367.821Z" fill="#188495"/>
<path d="M324.16 376.851C316.273 384.684 308.933 391.447 302.14 397.141C279.93 415.741 263.26 429.261 240.63 443.391L187.51 442.911C180.423 443.284 173.767 443.127 167.54 442.441L154.62 441.441C156.88 441.001 159.203 440.824 161.59 440.911C162.566 440.944 163.544 440.85 164.5 440.631C167.073 440.024 172.077 439.091 179.51 437.831C182.517 437.317 187.687 436.261 195.02 434.661C200.367 433.487 205.457 432.094 210.29 430.481C227.47 424.734 243.757 417.241 259.15 408.001C264.47 406.334 269.61 404.291 274.57 401.871C276.79 400.791 279.363 399.654 282.29 398.461C284.937 397.387 287.483 396.181 289.93 394.841L324.16 376.851Z" fill="#2FB991"/>
<path d="M20.5104 391.171L25.8704 430.441C25.7838 430.347 25.6271 430.304 25.4004 430.311C18.4538 425.744 11.8504 420.674 5.59043 415.101L0.29044 403.041L0.0904283 391.721C0.0891266 391.655 0.101039 391.59 0.125462 391.529C0.149885 391.467 0.186333 391.412 0.232762 391.364C0.279192 391.317 0.334695 391.279 0.396062 391.253C0.457429 391.226 0.523466 391.212 0.590428 391.211L20.5104 391.171Z" fill="#6FB33D"/>
<path d="M74.4302 391.171L76.5403 391.361C76.6938 391.376 76.8398 391.432 76.9617 391.524C77.0836 391.616 77.1766 391.74 77.2303 391.881C80.7103 401.091 83.6202 409.861 84.5302 419.481C84.7902 422.154 84.8236 426.561 84.6302 432.701C84.4502 438.467 84.3136 444.244 84.2202 450.031C71.6202 448.331 59.0802 444.701 47.1302 440.511C43.8102 439.351 40.2169 437.774 36.3503 435.781C32.8836 434.001 29.3902 432.221 25.8702 430.441L20.5103 391.171H74.4302Z" fill="#9EC744"/>
<path d="M149.67 442.011L149.33 450.461C140.184 451.747 131.95 452.417 124.63 452.471C121.95 452.491 115.47 452.351 105.19 452.051C98.1569 451.891 91.1669 451.217 84.2202 450.031C84.3135 444.244 84.4502 438.467 84.6302 432.701C84.8235 426.561 84.7902 422.154 84.5302 419.481C83.6202 409.861 80.7102 401.091 77.2302 391.881C77.1765 391.74 77.0835 391.616 76.9616 391.524C76.8397 391.432 76.6938 391.376 76.5402 391.361L74.4302 391.171L149.56 391.181C149.605 391.181 149.649 391.199 149.68 391.23C149.712 391.262 149.73 391.306 149.73 391.351L149.67 442.011Z" fill="#B9D84B"/>
<path d="M369.74 395.891L369.86 401.381L369.82 431.881L370.08 442.891L369.69 443.511L323.42 443.521L319.9 443.451C328.034 431.024 337.85 420.207 349.35 411.001C355.957 405.714 362.754 400.677 369.74 395.891Z" fill="#177492"/>
<path d="M5.59 415.101C5.55 423.001 8.00666 430.054 12.96 436.26C16.3333 440.48 19.79 443.724 23.33 445.991C27.5433 448.684 33.2733 451.75 40.52 455.19C57.9867 462.264 76.0333 467.511 94.66 470.931C96.5467 471.277 98.3433 471.53 100.05 471.69C103.037 472.144 105.937 472.551 108.75 472.911C114.997 473.711 121.237 474.551 127.47 475.431C131.443 475.991 138.787 476.564 149.5 477.151L149.63 492.621L149.39 495.56C149.375 495.701 149.31 495.831 149.206 495.925C149.103 496.019 148.969 496.071 148.83 496.07C139.777 496.11 131.51 495.864 124.03 495.331C109.397 494.284 94.55 491.387 79.49 486.641C63.8 481.701 32.04 470.251 0 460.361L0.290009 403.041L5.59 415.101Z" fill="#0D6F68"/>
<path d="M25.4003 430.311C30.3603 441.151 33.0803 447.691 40.5203 455.191C33.2737 451.751 27.5436 448.684 23.3303 445.991C19.7903 443.724 16.3337 440.481 12.9603 436.261C8.00699 430.054 5.55032 423.001 5.59032 415.101C11.8503 420.674 18.4537 425.744 25.4003 430.311Z" fill="#3E8832"/>
<path d="M25.8704 430.44C29.3904 432.22 32.8837 434.001 36.3504 435.781C40.2171 437.774 43.8104 439.35 47.1304 440.51C59.0804 444.7 71.6204 448.331 84.2204 450.031C91.1671 451.217 98.1571 451.891 105.19 452.051C104.737 458.857 103.024 465.404 100.05 471.69C98.3437 471.53 96.5471 471.277 94.6604 470.931C76.0337 467.511 57.9871 462.264 40.5204 455.19C33.0804 447.69 30.3604 441.15 25.4004 430.31C25.6271 430.304 25.7837 430.347 25.8704 430.44Z" fill="#51A746"/>
<path d="M154.62 441.441L167.54 442.441C177.66 451.221 188.667 458.281 200.56 463.621C233.093 478.207 265.06 476.837 296.46 459.511C307.28 453.537 316.267 448.207 323.42 443.521L369.69 443.511C369.717 450.857 369.717 458.064 369.69 465.131C369.663 470.631 369.233 474.557 368.4 476.911C364.79 487.061 355.34 493.051 344.99 495.841C341.423 496.801 336.823 497.584 331.19 498.191C327.55 498.584 322.893 498.784 317.22 498.791C246.393 498.924 196.977 498.977 168.97 498.951C161.323 498.944 154.94 499.034 149.82 499.221L149.63 492.621L149.5 477.151L149.33 450.461L149.67 442.011L154.62 441.441Z" fill="#083747"/>
<path d="M187.51 442.911C217.33 458.331 248.91 466.001 280.06 448.931C285.333 446.037 288.407 444.351 289.28 443.871C289.55 443.726 289.848 443.647 290.15 443.641L298.19 443.461L319.9 443.451L323.42 443.521C316.267 448.207 307.28 453.537 296.46 459.511C265.06 476.837 233.093 478.207 200.56 463.621C188.667 458.281 177.66 451.221 167.54 442.441C173.767 443.127 180.423 443.284 187.51 442.911Z" fill="#094A57"/>
<path d="M240.63 443.391L287.46 443.421L298.19 443.461L290.15 443.641C289.848 443.647 289.55 443.726 289.28 443.871C288.407 444.351 285.334 446.037 280.06 448.931C248.91 466.001 217.33 458.331 187.51 442.911L240.63 443.391Z" fill="#085A66"/>
<path d="M149.33 450.461L149.5 477.151C138.787 476.564 131.444 475.991 127.47 475.431C121.237 474.551 114.997 473.711 108.75 472.911C105.937 472.551 103.037 472.144 100.05 471.691C103.024 465.404 104.737 458.857 105.19 452.051C115.47 452.351 121.95 452.491 124.63 452.471C131.95 452.417 140.184 451.747 149.33 450.461Z" fill="#47B874"/>
<path d="M149.63 492.621L149.82 499.221L149.69 502.791C124.58 513.291 98.88 509.941 73.68 502.541C61.2333 498.887 48.9233 494.951 36.75 490.731C24.49 486.477 12.2433 482.097 0.0100098 477.591L0 460.361C32.04 470.251 63.8 481.701 79.49 486.641C94.55 491.387 109.397 494.284 124.03 495.331C131.51 495.864 139.777 496.111 148.83 496.071C148.969 496.071 149.103 496.019 149.206 495.925C149.31 495.831 149.375 495.701 149.39 495.561L149.63 492.621Z" fill="#0D6562"/>
<path d="M149.69 502.791L149.72 510.591L148.37 522.611C148.356 522.743 148.298 522.867 148.206 522.963C148.114 523.059 147.992 523.121 147.86 523.141C124.52 526.731 101.33 528.021 78.1802 522.711C62.8802 519.204 46.2036 514.057 28.1502 507.271C19.3636 503.964 9.98359 499.657 0.0102539 494.351V477.591C12.2436 482.097 24.4902 486.477 36.7502 490.731C48.9236 494.951 61.2336 498.887 73.6802 502.541C98.8802 509.941 124.58 513.291 149.69 502.791Z" fill="#094A57"/>
<path d="M149.72 510.591L149.83 538.721C149.83 538.851 149.78 538.975 149.69 539.067C149.6 539.159 149.478 539.211 149.35 539.211H0.270233C0.230451 539.211 0.192315 539.195 0.164185 539.167C0.136054 539.138 0.120239 539.1 0.120239 539.061L0.0102539 494.351C9.98359 499.657 19.3636 503.964 28.1502 507.271C46.2036 514.057 62.8802 519.204 78.1802 522.711C101.33 528.021 124.52 526.731 147.86 523.141C147.992 523.121 148.114 523.059 148.206 522.963C148.298 522.867 148.356 522.743 148.37 522.611L149.72 510.591Z" fill="#083747"/>
</svg>
