<svg width="571" height="733" viewBox="0 0 571 733" fill="none" xmlns="http://www.w3.org/2000/svg">
<path d="M514.11 4.54057L513.86 5.97056C513.832 6.12139 513.772 6.2639 513.683 6.38823C513.595 6.51256 513.482 6.61574 513.35 6.69057C495.037 17.0172 474.88 24.5506 452.88 29.2906C441.494 31.7506 433.45 33.4239 428.75 34.3106C421.117 27.0639 415.18 21.9206 410.94 18.8806C409.98 18.1939 406.274 16.0072 399.82 12.3206C394.96 9.54057 390.68 8.33056 385.39 6.06056C383.504 5.25389 380.92 4.31723 377.64 3.25056C375.114 2.4239 372.5 1.56388 369.8 0.670546C372.34 0.210546 374.73 -0.0127699 376.97 0.00056342C427.304 0.213897 470.804 0.250549 507.47 0.110549C509.464 0.103882 511.454 0.127223 513.44 0.180556C513.585 0.185536 513.722 0.245097 513.824 0.347182C513.926 0.449268 513.985 0.58629 513.99 0.730574L514.11 4.54057Z" fill="#FDC509"/>
<path d="M369.8 0.670478C372.5 1.56381 375.114 2.42383 377.64 3.25049C380.92 4.31716 383.504 5.25383 385.39 6.06049C390.68 8.33049 394.96 9.5405 399.82 12.3205C406.274 16.0072 409.98 18.1938 410.94 18.8805C415.18 21.9205 421.117 27.0638 428.75 34.3105C431.577 38.4505 434.604 42.4238 437.83 46.2305C439.057 47.6772 441.537 51.5605 445.27 57.8805L452.06 70.0305C452.13 70.1583 452.239 70.2603 452.373 70.3215C452.506 70.3827 452.656 70.3999 452.8 70.3705C475.49 66.0905 493.64 59.9005 513.92 53.4905L513.96 75.2105C499.294 83.5838 484.11 90.7371 468.41 96.6705C465.424 94.7438 462.304 92.9505 459.05 91.2905C446.21 84.7305 433.88 77.4205 420.48 71.9505C409.92 67.2305 399.067 63.2405 387.92 59.9805C377.187 56.8338 369.174 54.6038 363.88 53.2905C362.767 53.0172 361.637 52.8372 360.49 52.7505C360.349 52.7391 360.208 52.7713 360.085 52.8427C359.962 52.9141 359.863 53.0214 359.8 53.1505L357.91 57.0805C358.157 55.1338 358.094 53.2505 357.72 51.4305C357.681 51.2523 357.606 51.0824 357.5 50.9305L357.17 50.4305L357.45 0.900489C357.452 0.832197 357.466 0.764839 357.494 0.702246C357.521 0.639654 357.561 0.583042 357.61 0.535681C357.659 0.488321 357.717 0.451129 357.781 0.426215C357.844 0.4013 357.912 0.389153 357.98 0.390479L369.8 0.670478Z" fill="#FD8005"/>
<path d="M513.98 36.2305C491.55 45.7705 468.84 52.1705 445.27 57.8805C441.537 51.5605 439.057 47.6772 437.83 46.2305C434.604 42.4239 431.577 38.4505 428.75 34.3105C433.45 33.4238 441.494 31.7505 452.88 29.2905C474.88 24.5505 495.037 17.0172 513.35 6.69052C513.482 6.61569 513.596 6.51252 513.684 6.38818C513.772 6.26385 513.832 6.12134 513.86 5.97052L514.11 4.54053L513.98 36.2305Z" fill="#FCB10A"/>
<path d="M513.98 36.2307L513.92 53.4907C493.64 59.9007 475.49 66.0907 452.8 70.3707C452.655 70.4001 452.505 70.3829 452.372 70.3217C452.239 70.2605 452.13 70.1585 452.06 70.0307L445.27 57.8807C468.84 52.1707 491.55 45.7707 513.98 36.2307Z" fill="#FB9708"/>
<path d="M301.16 50.0405C300.92 57.0405 300.487 62.6005 299.86 66.7205C295.75 93.7505 280.43 100.88 254.77 98.8304L254.6 93.4504C254.595 93.309 254.535 93.1753 254.434 93.0781C254.333 92.9808 254.199 92.9278 254.06 92.9305L199.01 93.2104L198.48 92.8304L198.57 50.4504C198.57 50.3178 198.623 50.1907 198.716 50.0969C198.81 50.0031 198.937 49.9504 199.07 49.9504L301.16 50.0405Z" fill="#F43702"/>
<path d="M341.14 50.2205C341.06 58.0205 341 65.8505 340.96 73.7105C340.87 89.1905 335.31 100.911 325.83 113.151L254.53 113.241L254.71 106.231L254.77 98.8305C280.43 100.881 295.75 93.7505 299.86 66.7205C300.487 62.6005 300.92 57.0405 301.16 50.0405L341.14 50.2205Z" fill="#D50E09"/>
<path d="M357.17 50.4305L357.5 50.9305C357.606 51.0824 357.68 51.2522 357.72 51.4305C358.093 53.2505 358.157 55.1338 357.91 57.0804L357.65 113.18L325.83 113.15C335.31 100.91 340.87 89.1904 340.96 73.7104C341 65.8504 341.06 58.0205 341.14 50.2205L357.17 50.4305Z" fill="#B40C08"/>
<path d="M420.48 71.9505C417.574 79.2638 414.63 86.5605 411.65 93.8405C408.85 100.651 405.58 107.721 401.81 113.221C395.24 122.761 388.19 130.931 381.76 139.971C381.732 140.01 381.716 140.056 381.713 140.105C381.71 140.153 381.721 140.201 381.744 140.244C381.766 140.286 381.801 140.322 381.843 140.346C381.884 140.37 381.932 140.382 381.98 140.381L401.5 140.481H358.13C357.998 140.481 357.871 140.427 357.777 140.331C357.683 140.236 357.63 140.106 357.63 139.971L357.65 113.181L357.91 57.0805L359.8 53.1505C359.863 53.0214 359.962 52.9141 360.085 52.8427C360.208 52.7713 360.349 52.7392 360.49 52.7505C361.637 52.8372 362.767 53.0172 363.88 53.2905C369.174 54.6039 377.187 56.8339 387.92 59.9805C399.067 63.2405 409.92 67.2305 420.48 71.9505Z" fill="#FD5303"/>
<path d="M420.48 71.9504C433.88 77.4204 446.21 84.7305 459.05 91.2905C462.303 92.9505 465.423 94.7438 468.41 96.6704L483.03 106.28C472.937 116.06 464.863 127.244 458.81 139.83C458.787 139.879 458.776 139.932 458.778 139.986C458.781 140.039 458.797 140.091 458.824 140.137C458.852 140.183 458.891 140.221 458.938 140.248C458.984 140.274 459.036 140.289 459.09 140.29L467.43 140.49L401.5 140.48L381.98 140.38C381.932 140.382 381.884 140.37 381.842 140.346C381.8 140.321 381.766 140.286 381.743 140.243C381.72 140.201 381.71 140.153 381.713 140.105C381.716 140.056 381.732 140.01 381.76 139.97C388.19 130.93 395.24 122.76 401.81 113.22C405.58 107.72 408.85 100.65 411.65 93.8405C414.63 86.5605 417.573 79.2638 420.48 71.9504Z" fill="#F43702"/>
<path d="M513.96 75.2107L513.89 106.061L495.69 116.351L483.03 106.281L468.41 96.6707C484.11 90.7374 499.293 83.584 513.96 75.2107Z" fill="#FD5303"/>
<path d="M157.18 92.8306C165.79 103.171 175.01 112.481 187.45 118.091C193.69 120.904 201.07 122.914 209.59 124.121C224.63 126.247 239.49 125.277 254.17 121.211L253.98 150.451C236.494 157.277 218.604 158.677 200.31 154.651C188.564 152.064 177.264 148.154 166.41 142.921C151.63 135.787 139.317 125.654 129.47 112.521C122.184 102.794 117.427 96.2639 115.2 92.9306L157.18 92.8306Z" fill="#FD8005"/>
<path d="M198.48 92.8306L199.01 93.2106C216.71 100.861 235.36 103.951 254.71 106.231L254.53 113.241L254.17 121.211C239.49 125.277 224.63 126.247 209.59 124.121C201.07 122.914 193.69 120.904 187.45 118.091C175.01 112.481 165.79 103.171 157.18 92.8306H198.48Z" fill="#FB9708"/>
<path d="M254.77 98.8305L254.71 106.231C235.36 103.951 216.71 100.861 199.01 93.2105L254.06 92.9305C254.199 92.9279 254.333 92.9809 254.434 93.0782C254.535 93.1754 254.595 93.3091 254.6 93.4505L254.77 98.8305Z" fill="#FCB10A"/>
<path d="M115.2 92.9307C117.427 96.264 122.183 102.794 129.47 112.521C139.317 125.654 151.63 135.787 166.41 142.921C177.263 148.154 188.563 152.064 200.31 154.651C218.603 158.677 236.493 157.277 253.98 150.451L253.87 163.351C253.869 163.393 253.859 163.434 253.842 163.472C253.825 163.511 253.8 163.545 253.769 163.574C253.739 163.603 253.703 163.625 253.663 163.64C253.624 163.655 253.582 163.662 253.54 163.661C238.733 162.981 224.72 163.031 211.5 163.811C205.45 164.171 199.05 165.731 191.95 167.761C188.61 168.721 185.377 169.571 182.25 170.311L143.43 171.461C132.47 163.114 122.073 154.387 112.24 145.281C99.0501 133.081 89.0101 120.891 80.3501 106.021C83.6601 103.611 87.0401 100.991 90.4801 99.1907C98.2134 95.164 106.453 93.0773 115.2 92.9307Z" fill="#FD5303"/>
<path d="M513.89 106.061L513.98 132.371L513.03 134.881C512.985 135 512.908 135.104 512.807 135.183C512.707 135.262 512.587 135.312 512.46 135.327C512.334 135.342 512.205 135.323 512.089 135.271C511.972 135.218 511.873 135.135 511.8 135.031C507.107 128.424 501.737 122.197 495.69 116.351L513.89 106.061Z" fill="#F43702"/>
<path d="M483.03 106.281L495.69 116.351C501.737 122.197 507.107 128.424 511.8 135.031C511.873 135.135 511.973 135.218 512.089 135.271C512.205 135.323 512.334 135.342 512.46 135.327C512.587 135.312 512.707 135.262 512.807 135.183C512.908 135.104 512.985 135 513.03 134.881L513.98 132.371L514.01 139.821C514.01 139.958 513.956 140.091 513.861 140.188C513.765 140.286 513.635 140.341 513.5 140.341L467.43 140.491L459.09 140.291C459.037 140.289 458.984 140.274 458.938 140.248C458.891 140.221 458.852 140.183 458.825 140.137C458.797 140.091 458.781 140.039 458.778 139.986C458.776 139.932 458.787 139.879 458.81 139.831C464.863 127.244 472.937 116.061 483.03 106.281Z" fill="#D50E09"/>
<path d="M80.3502 106.021C89.0102 120.891 99.0502 133.081 112.24 145.281C122.074 154.387 132.47 163.114 143.43 171.461C133.824 171.234 124.367 170.331 115.06 168.751C104.63 166.991 95.2702 163.921 86.5902 159.701C79.3369 156.167 73.2169 150.381 68.2302 142.341C67.7502 141.561 67.2302 141.291 66.7602 140.801C66.6466 140.684 66.5586 140.543 66.5018 140.388C66.445 140.233 66.4206 140.067 66.4302 139.901C66.5369 138.074 66.2169 136.477 65.4702 135.111C66.2502 128.497 68.3136 122.384 71.6602 116.771C72.8736 114.731 75.7702 111.147 80.3502 106.021Z" fill="#F43702"/>
<path d="M143.43 171.461L182.25 170.311L172.23 175.061C172.024 175.014 171.79 175.041 171.53 175.141C167.924 176.514 163.84 178.194 159.28 180.181C157.614 180.901 153.534 182.587 147.04 185.241C141.147 187.647 135.297 190.444 129.49 193.631L115.63 202.291C102.62 199.851 90.5802 196.481 79.8002 188.841C75.0136 185.454 70.1602 180.351 65.2402 173.531L65.4702 135.111C66.2169 136.477 66.5369 138.074 66.4302 139.901C66.4207 140.067 66.4451 140.234 66.5019 140.388C66.5587 140.543 66.6467 140.684 66.7603 140.801C67.2303 141.291 67.7503 141.561 68.2303 142.341C73.2169 150.381 79.3369 156.167 86.5902 159.701C95.2702 163.921 104.63 166.991 115.06 168.751C124.367 170.331 133.824 171.234 143.43 171.461Z" fill="#D50E09"/>
<path d="M115.63 202.291C112.39 204.857 110.43 206.551 109.75 207.371C103.97 214.404 101.007 222.55 100.86 231.81C100.327 242.817 102.474 253.171 107.3 262.871C109 266.281 111.61 269.08 113.95 272.25C110.264 272.244 106.584 272.271 102.91 272.331C100.16 272.381 97.7102 271.36 95.0502 271.82C94.4829 271.919 93.9013 271.903 93.3402 271.771C89.1402 270.801 85.2902 270.131 81.8902 268.621C70.2102 263.447 64.5636 254.271 64.9502 241.091C65.0436 237.831 65.0902 236.157 65.0902 236.07C65.1035 215.304 65.1535 194.457 65.2402 173.531C70.1602 180.351 75.0135 185.454 79.8002 188.841C90.5802 196.481 102.62 199.851 115.63 202.291Z" fill="#B40C08"/>
<path d="M172.23 175.061L171.53 183.811C171.519 183.956 171.538 184.103 171.586 184.241C171.634 184.379 171.709 184.506 171.808 184.613C171.907 184.72 172.026 184.805 172.159 184.863C172.292 184.921 172.435 184.951 172.58 184.951H221.55C221.746 184.951 221.935 185.029 222.074 185.167C222.212 185.306 222.29 185.494 222.29 185.691L222.16 210.281L221.8 213.171C221.793 213.229 221.773 213.285 221.741 213.334C221.71 213.384 221.667 213.425 221.617 213.456C221.567 213.487 221.511 213.506 221.453 213.512C221.394 213.518 221.335 213.511 221.28 213.491C211.98 210.277 202.384 206.774 192.49 202.981C180.35 198.321 169.16 195.421 157.01 195.021C150.384 194.801 142.69 194.947 133.93 195.461C131.93 195.041 130.45 194.431 129.49 193.631C135.297 190.444 141.147 187.647 147.04 185.241C153.534 182.587 157.614 180.901 159.28 180.181C163.84 178.194 167.924 176.514 171.53 175.141C171.79 175.041 172.024 175.014 172.23 175.061Z" fill="#FDC509"/>
<path d="M222.16 210.281L222.47 230.241C221.83 234.054 221.697 237.537 222.07 240.691L221.34 243.031C220.927 243.151 220.34 242.864 219.58 242.171C219.408 242.011 219.216 241.877 219.01 241.771C211.49 237.941 205.23 233.451 197.81 229.171C189.07 224.137 174.614 215.701 154.44 203.861C149.5 200.961 142.664 198.161 133.93 195.461C142.69 194.947 150.384 194.801 157.01 195.021C169.16 195.421 180.35 198.321 192.49 202.981C202.384 206.774 211.98 210.277 221.28 213.491C221.335 213.511 221.394 213.518 221.453 213.512C221.511 213.506 221.567 213.487 221.617 213.456C221.667 213.425 221.71 213.384 221.741 213.334C221.773 213.285 221.793 213.229 221.8 213.171L222.16 210.281Z" fill="#FCB10A"/>
<path d="M129.49 193.631C130.45 194.431 131.93 195.041 133.93 195.461C142.664 198.161 149.5 200.961 154.44 203.861C174.614 215.701 189.07 224.137 197.81 229.171C205.23 233.451 211.49 237.941 219.01 241.771C219.216 241.877 219.408 242.011 219.58 242.171C220.34 242.864 220.927 243.151 221.34 243.031C221.694 251.404 221.71 259.897 221.39 268.511C221.384 268.564 221.44 269.107 221.56 270.141C221.627 270.794 221.514 271.534 221.22 272.361L198.01 272.251L200.1 272.071C200.137 272.069 200.173 272.055 200.201 272.031C200.229 272.006 200.247 271.973 200.253 271.936C200.259 271.9 200.252 271.862 200.233 271.83C200.214 271.798 200.185 271.773 200.15 271.761C162.3 255.641 134.1 244.851 100.86 231.811C101.007 222.551 103.97 214.404 109.75 207.371C110.43 206.551 112.39 204.857 115.63 202.291L129.49 193.631Z" fill="#E15E05"/>
<path d="M294.59 230.27C276.64 240.02 256.94 245.97 236.9 249.64L222.07 240.69C221.697 237.537 221.83 234.054 222.47 230.24L294.59 230.27Z" fill="#B9D84B"/>
<path d="M358.41 239.291C328.18 249.001 294 255.081 260.72 263.431C258.7 262.477 257.327 261.737 256.6 261.211C253.527 258.951 250.22 257.091 246.68 255.631C244.954 254.917 241.694 252.921 236.9 249.641C256.94 245.971 276.64 240.021 294.59 230.271L357.86 230.231C357.997 230.231 358.127 230.284 358.225 230.379C358.322 230.475 358.378 230.605 358.38 230.741L358.41 239.291Z" fill="#9EC744"/>
<path d="M100.86 231.811C134.1 244.851 162.3 255.641 200.15 271.761C200.185 271.773 200.214 271.798 200.233 271.83C200.252 271.862 200.259 271.9 200.253 271.936C200.247 271.973 200.229 272.006 200.201 272.031C200.173 272.055 200.137 272.069 200.1 272.071L198.01 272.251H113.95C111.61 269.081 109 266.281 107.3 262.871C102.474 253.171 100.327 242.817 100.86 231.811Z" fill="#C14704"/>
<path d="M358.41 239.291L358.33 251.051L358.25 253.781C358.247 253.936 358.207 254.089 358.135 254.228C358.062 254.366 357.958 254.487 357.83 254.581C348.05 261.574 338.387 266.63 328.84 269.75C316.967 273.637 305.087 277.521 293.2 281.401L284.57 276.81L260.72 263.431C294 255.081 328.18 249.001 358.41 239.291Z" fill="#6FB33D"/>
<path d="M236.9 249.641C241.694 252.921 244.954 254.917 246.68 255.631C250.22 257.091 253.527 258.951 256.6 261.211C257.327 261.737 258.7 262.477 260.72 263.431L284.57 276.811C282.057 277.431 279.957 277.617 278.27 277.371C261.924 274.964 245.507 273.217 229.02 272.131C226.607 271.971 224.18 272.087 221.74 272.481C221.567 272.441 221.394 272.401 221.22 272.361C221.514 271.534 221.627 270.794 221.56 270.141C221.44 269.107 221.384 268.564 221.39 268.511C221.71 259.897 221.694 251.404 221.34 243.031L222.07 240.691L236.9 249.641Z" fill="#3E8832"/>
<path d="M358.66 278.091C358.48 278.151 358.344 278.164 358.25 278.13L341.72 278.351C341.587 278.353 341.46 278.408 341.366 278.503C341.273 278.599 341.22 278.727 341.22 278.861L341.1 293.051L340.92 288.971C340.918 288.926 340.903 288.883 340.876 288.847C340.849 288.812 340.812 288.785 340.77 288.771C340.728 288.757 340.682 288.756 340.639 288.769C340.597 288.781 340.558 288.806 340.53 288.841C337.124 292.854 333.267 296.434 328.96 299.581L324.9 297.491L307.87 288.951L293.2 281.401C305.087 277.521 316.967 273.637 328.84 269.75C338.387 266.63 348.05 261.574 357.83 254.581C357.958 254.487 358.062 254.366 358.135 254.228C358.207 254.089 358.247 253.936 358.25 253.781L358.33 251.051L358.66 278.091Z" fill="#51A746"/>
<path d="M284.57 276.811L293.2 281.401L307.87 288.951C288.51 295.641 271.41 298.621 251.07 298.041C241.317 297.767 231.547 297.291 221.76 296.611L221.74 272.481C224.18 272.087 226.607 271.971 229.02 272.131C245.507 273.217 261.924 274.964 278.27 277.371C279.957 277.617 282.057 277.431 284.57 276.811Z" fill="#138B74"/>
<path d="M358.25 278.131C358.544 291.404 359.787 304.594 361.98 317.701C354.66 314.654 347.737 310.877 341.21 306.371C341.097 306.017 341.044 305.657 341.05 305.291L341.1 293.051L341.22 278.861C341.22 278.727 341.273 278.599 341.366 278.503C341.46 278.408 341.587 278.353 341.72 278.351L358.25 278.131Z" fill="#B9D84B"/>
<path d="M358.66 278.091C358.874 278.351 359.144 278.481 359.47 278.481C373.484 278.447 387.454 278.404 401.38 278.351C404.97 297.861 407.16 316.261 404.91 335.831L398.23 333.291L366.19 319.551L361.98 317.701C359.787 304.594 358.544 291.404 358.25 278.131C358.344 278.164 358.48 278.151 358.66 278.091Z" fill="#91D95B"/>
<path d="M428.67 278.341C429.284 282.667 429.994 286.927 430.8 291.121C433.407 304.647 435.504 318.251 437.09 331.931C437.72 337.391 438.64 342.631 439.48 348.001L427.93 344.501L404.91 335.831C407.16 316.261 404.97 297.861 401.38 278.351L428.67 278.341Z" fill="#66C96E"/>
<path d="M486.47 278.361L483.18 278.791C483.051 278.81 482.935 278.878 482.853 278.98C482.772 279.082 482.731 279.21 482.74 279.341C484.15 299.531 484.81 317.271 482.52 336.871C470.11 343.311 456.12 348.051 442.32 348.451L439.48 348.001C438.64 342.631 437.72 337.391 437.09 331.931C435.504 318.251 433.407 304.647 430.8 291.121C429.994 286.927 429.284 282.667 428.67 278.341L486.47 278.361Z" fill="#47B874"/>
<path d="M486.47 278.361C497.23 279.521 505.1 284.811 510.08 294.231C511.233 296.417 512.033 298.797 512.48 301.371C512.947 304.037 513.137 306.544 513.05 308.891C511.017 310.737 509.367 313.231 508.1 316.371C501.513 325.524 492.987 332.357 482.52 336.871C484.81 317.271 484.15 299.531 482.74 279.341C482.731 279.21 482.771 279.082 482.853 278.98C482.934 278.878 483.051 278.81 483.18 278.791L486.47 278.361Z" fill="#24A37C"/>
<path d="M341.1 293.051L341.05 305.291L333.95 302.321L328.96 299.581C333.267 296.434 337.124 292.854 340.53 288.841C340.559 288.806 340.597 288.781 340.64 288.769C340.682 288.756 340.728 288.757 340.77 288.771C340.812 288.785 340.85 288.812 340.876 288.848C340.903 288.883 340.919 288.926 340.92 288.971L341.1 293.051Z" fill="#0D6F68"/>
<path d="M307.87 288.95L324.9 297.49C309.35 305.63 293.98 311.24 276.33 312.18C258.82 313.12 240.85 311.62 222.59 308.53C222.449 308.507 222.319 308.441 222.215 308.341C222.112 308.241 222.04 308.112 222.01 307.97L221.78 306.87L221.76 296.61C231.547 297.29 241.317 297.767 251.07 298.04C271.41 298.62 288.51 295.64 307.87 288.95Z" fill="#0D6F68"/>
<path d="M328.96 299.58L333.95 302.32C324.63 306.787 317.46 309.924 312.44 311.73C283.42 322.17 252.72 323.04 222.65 316.01C222.518 315.98 222.396 315.916 222.295 315.825C222.194 315.734 222.116 315.619 222.07 315.49L221.78 314.62V306.87L222.01 307.97C222.04 308.112 222.112 308.241 222.215 308.341C222.319 308.441 222.449 308.507 222.59 308.53C240.85 311.62 258.82 313.12 276.33 312.18C293.98 311.24 309.35 305.63 324.9 297.49L328.96 299.58Z" fill="#0D6562"/>
<path d="M333.95 302.321L341.05 305.291C341.044 305.657 341.097 306.017 341.21 306.371L341.27 307.241C325.14 315.921 308.85 323.121 290.8 326.681C276.014 329.601 259.45 330.587 241.11 329.641C235.944 329.374 229.514 328.444 221.82 326.851L221.78 314.621L222.07 315.491C222.116 315.619 222.194 315.734 222.295 315.825C222.396 315.916 222.518 315.98 222.65 316.011C252.72 323.041 283.42 322.171 312.44 311.731C317.46 309.924 324.63 306.787 333.95 302.321Z" fill="#085A66"/>
<path d="M361.98 317.701L366.19 319.551C365.737 324.204 364.924 328.754 363.75 333.201C361.83 340.501 357.32 341.541 350.93 343.601C348.27 343.781 344.65 343.171 342.15 344.211L341.41 343.611L341.31 320.761L341.27 307.241L341.21 306.371C347.737 310.877 354.66 314.654 361.98 317.701Z" fill="#9EC744"/>
<path d="M341.27 307.24L341.31 320.76C337.043 325.08 333.617 327.94 331.03 329.34C317.29 336.774 302.91 340.33 287.89 340.01C272.963 339.69 258.047 339.897 243.14 340.63C235.947 340.99 228.83 340.497 221.79 339.15L221.82 326.85C229.513 328.444 235.943 329.374 241.11 329.64C259.45 330.587 276.013 329.6 290.8 326.68C308.85 323.12 325.14 315.92 341.27 307.24Z" fill="#094A57"/>
<path d="M513.05 308.891L513.08 315.981C510.687 326.534 507.457 335.394 503.39 342.561C498.57 351.047 491.72 360.154 482.84 369.881C468.08 386.061 449 397.051 426.56 395.381C426.494 395.375 426.428 395.383 426.365 395.404C426.302 395.425 426.244 395.458 426.195 395.502C426.145 395.546 426.105 395.6 426.077 395.66C426.049 395.72 426.033 395.784 426.03 395.851L425.86 401.381L425.74 395.891L425.79 388.331C439.264 382.377 448.687 377.934 454.06 375.001C477.5 362.221 496.09 340.221 508.1 316.371C509.367 313.231 511.017 310.737 513.05 308.891Z" fill="#085A66"/>
<path d="M513.08 315.981L513.1 359.001C508.1 370.534 502.394 380.167 495.98 387.901C487.42 398.221 475.82 406.934 461.18 414.041C449.86 419.531 438.06 423.941 426.53 428.991C426.396 429.049 426.28 429.141 426.194 429.259C426.108 429.377 426.055 429.516 426.04 429.661L425.82 431.881L425.86 401.381L426.03 395.851C426.033 395.785 426.049 395.72 426.077 395.66C426.105 395.6 426.145 395.546 426.195 395.502C426.244 395.459 426.302 395.425 426.365 395.404C426.428 395.383 426.494 395.375 426.56 395.381C449 397.051 468.08 386.061 482.84 369.881C491.72 360.154 498.57 351.047 503.39 342.561C507.457 335.394 510.687 326.534 513.08 315.981Z" fill="#094A57"/>
<path d="M508.1 316.371C496.09 340.221 477.5 362.221 454.06 375.001C448.687 377.934 439.263 382.377 425.79 388.331L425.93 367.821C431.957 365.554 437.573 362.491 442.78 358.631C444.84 357.101 447.75 353.811 445.66 351.181C444.66 349.927 443.547 349.017 442.32 348.451C456.12 348.051 470.11 343.311 482.52 336.871C492.987 332.357 501.513 325.524 508.1 316.371Z" fill="#0D6F68"/>
<path d="M341.31 320.76L341.41 343.611L222.07 343.741C222.007 343.741 221.944 343.728 221.885 343.702C221.827 343.677 221.774 343.64 221.73 343.593C221.686 343.546 221.652 343.491 221.63 343.43C221.608 343.37 221.597 343.305 221.6 343.241L221.79 339.151C228.83 340.497 235.947 340.99 243.14 340.63C258.047 339.897 272.963 339.69 287.89 340.01C302.91 340.33 317.29 336.774 331.03 329.341C333.617 327.941 337.043 325.08 341.31 320.76Z" fill="#083747"/>
<path d="M398.23 333.291C396 335.641 391.26 340.99 393 344.75L377.43 344.471L360.91 343.931L350.93 343.601C357.32 341.541 361.83 340.501 363.75 333.201C364.924 328.754 365.737 324.204 366.19 319.551L398.23 333.291Z" fill="#6FB33D"/>
<path d="M398.23 333.291L404.91 335.831L427.93 344.5C426.41 346.647 425.684 349.344 425.75 352.591C425.917 350.444 425.777 348.624 425.33 347.13C425.191 346.662 424.907 346.251 424.519 345.954C424.131 345.658 423.659 345.492 423.17 345.481L403.72 345.06L393 344.75C391.26 340.99 396 335.641 398.23 333.291Z" fill="#3E8832"/>
<path d="M350.93 343.601L360.91 343.931C358.457 350.071 355.12 357.417 350.9 365.971C345.174 377.584 337.674 387.301 328.4 395.121C333.16 389.174 336.854 383.334 339.48 377.601C341.42 373.361 342.01 368.651 342.05 363.471C342.104 357.051 342.137 350.631 342.15 344.211C344.65 343.171 348.27 343.781 350.93 343.601Z" fill="#B9D84B"/>
<path d="M377.43 344.471C369.997 363.151 359.497 379.941 345.93 394.841C343.484 396.181 340.937 397.387 338.29 398.461C335.364 399.654 332.79 400.791 330.57 401.871C325.61 404.291 320.47 406.334 315.15 408.001L328.4 395.121C337.674 387.301 345.174 377.584 350.9 365.971C355.12 357.417 358.457 350.071 360.91 343.931L377.43 344.471Z" fill="#91D95B"/>
<path d="M393 344.75L403.72 345.06L390 371.7L380.16 376.85L345.93 394.84C359.497 379.94 369.997 363.15 377.43 344.47L393 344.75Z" fill="#66C96E"/>
<path d="M427.93 344.5L439.48 348L442.32 348.451C443.547 349.017 444.66 349.927 445.66 351.181C447.75 353.811 444.84 357.1 442.78 358.63C437.573 362.49 431.957 365.554 425.93 367.82L425.58 364.841L425.35 354.601L425.75 352.591C425.683 349.344 426.41 346.647 427.93 344.5Z" fill="#195239"/>
<path d="M425.75 352.591L425.35 354.601L390 371.701L403.72 345.061L423.17 345.481C423.659 345.492 424.131 345.658 424.519 345.954C424.907 346.251 425.191 346.663 425.33 347.131C425.777 348.624 425.917 350.444 425.75 352.591Z" fill="#47B874"/>
<path d="M425.35 354.601L425.58 364.841C415.094 374.247 404.404 383.401 393.51 392.301C374.67 407.681 356.67 422.741 343.46 443.421L296.63 443.391C319.26 429.261 335.93 415.741 358.14 397.141C364.934 391.447 372.274 384.684 380.16 376.851L390 371.701L425.35 354.601Z" fill="#209D93"/>
<path d="M513.1 359V416.901C513.1 417.226 513.063 417.555 512.99 417.88C511.13 425.927 506.527 431.751 499.18 435.351C491.42 439.151 482.23 441.351 471.61 441.951C471.317 441.97 471.027 442.011 470.74 442.07C468.42 442.604 465.077 442.891 460.71 442.931C449.25 443.031 437.707 443.017 426.08 442.891L425.82 431.88L426.04 429.661C426.055 429.515 426.108 429.377 426.194 429.259C426.28 429.141 426.396 429.049 426.53 428.991C438.06 423.941 449.86 419.531 461.18 414.041C475.82 406.934 487.42 398.221 495.98 387.901C502.394 380.167 508.1 370.534 513.1 359Z" fill="#083747"/>
<path d="M425.93 367.821L425.79 388.331L425.74 395.891C418.754 400.677 411.957 405.714 405.35 411.001C393.85 420.207 384.034 431.024 375.9 443.451L354.19 443.461L343.46 443.421C356.67 422.741 374.67 407.681 393.51 392.301C404.404 383.401 415.094 374.247 425.58 364.841L425.93 367.821Z" fill="#188495"/>
<path d="M380.16 376.851C372.273 384.684 364.933 391.447 358.14 397.141C335.93 415.741 319.26 429.261 296.63 443.391L243.51 442.911C236.423 443.284 229.767 443.127 223.54 442.441L210.62 441.441C212.88 441.001 215.203 440.824 217.59 440.911C218.566 440.944 219.544 440.85 220.5 440.631C223.073 440.024 228.077 439.091 235.51 437.831C238.517 437.317 243.687 436.261 251.02 434.661C256.367 433.487 261.457 432.094 266.29 430.481C283.47 424.734 299.757 417.241 315.15 408.001C320.47 406.334 325.61 404.291 330.57 401.871C332.79 400.791 335.363 399.654 338.29 398.461C340.937 397.387 343.483 396.181 345.93 394.841L380.16 376.851Z" fill="#2FB991"/>
<path d="M76.5104 391.171L81.8704 430.441C81.7838 430.347 81.6271 430.304 81.4004 430.311C74.4538 425.744 67.8504 420.674 61.5904 415.101L56.2904 403.041L56.0904 391.721C56.0891 391.655 56.101 391.59 56.1255 391.529C56.1499 391.467 56.1863 391.412 56.2328 391.364C56.2792 391.317 56.3347 391.279 56.3961 391.253C56.4574 391.226 56.5235 391.212 56.5904 391.211L76.5104 391.171Z" fill="#6FB33D"/>
<path d="M130.43 391.171L132.54 391.361C132.694 391.376 132.84 391.432 132.962 391.524C133.084 391.616 133.177 391.74 133.23 391.881C136.71 401.091 139.62 409.861 140.53 419.481C140.79 422.154 140.824 426.561 140.63 432.701C140.45 438.467 140.314 444.244 140.22 450.031C127.62 448.331 115.08 444.701 103.13 440.511C99.8102 439.351 96.2169 437.774 92.3503 435.781C88.8836 434.001 85.3902 432.221 81.8702 430.441L76.5103 391.171H130.43Z" fill="#9EC744"/>
<path d="M205.67 442.011L205.33 450.461C196.184 451.747 187.95 452.417 180.63 452.471C177.95 452.491 171.47 452.351 161.19 452.051C154.157 451.891 147.167 451.217 140.22 450.031C140.314 444.244 140.45 438.467 140.63 432.701C140.824 426.561 140.79 422.154 140.53 419.481C139.62 409.861 136.71 401.091 133.23 391.881C133.177 391.74 133.084 391.616 132.962 391.524C132.84 391.432 132.694 391.376 132.54 391.361L130.43 391.171L205.56 391.181C205.605 391.181 205.649 391.199 205.68 391.23C205.712 391.262 205.73 391.306 205.73 391.351L205.67 442.011Z" fill="#B9D84B"/>
<path d="M425.74 395.891L425.86 401.381L425.82 431.881L426.08 442.891L425.69 443.511L379.42 443.521L375.9 443.451C384.034 431.024 393.85 420.207 405.35 411.001C411.957 405.714 418.754 400.677 425.74 395.891Z" fill="#177492"/>
<path d="M61.59 415.101C61.55 423.001 64.0067 430.054 68.96 436.26C72.3333 440.48 75.79 443.724 79.33 445.991C83.5433 448.684 89.2733 451.75 96.52 455.19C113.987 462.264 132.033 467.511 150.66 470.931C152.547 471.277 154.343 471.53 156.05 471.69C159.037 472.144 161.937 472.551 164.75 472.911C170.997 473.711 177.237 474.551 183.47 475.431C187.443 475.991 194.787 476.564 205.5 477.151L205.63 492.621L205.39 495.56C205.375 495.701 205.31 495.831 205.206 495.925C205.103 496.019 204.969 496.071 204.83 496.07C195.777 496.11 187.51 495.864 180.03 495.331C165.397 494.284 150.55 491.387 135.49 486.641C119.8 481.701 88.04 470.251 56 460.361L56.29 403.041L61.59 415.101Z" fill="#0D6F68"/>
<path d="M81.4003 430.311C86.3603 441.151 89.0803 447.691 96.5203 455.191C89.2737 451.751 83.5436 448.684 79.3303 445.991C75.7903 443.724 72.3337 440.481 68.9603 436.261C64.007 430.054 61.5503 423.001 61.5903 415.101C67.8503 420.674 74.4537 425.744 81.4003 430.311Z" fill="#3E8832"/>
<path d="M81.8704 430.44C85.3904 432.22 88.8837 434.001 92.3504 435.781C96.2171 437.774 99.8104 439.35 103.13 440.51C115.08 444.7 127.62 448.331 140.22 450.031C147.167 451.217 154.157 451.891 161.19 452.051C160.737 458.857 159.024 465.404 156.05 471.69C154.344 471.53 152.547 471.277 150.66 470.931C132.034 467.511 113.987 462.264 96.5204 455.19C89.0804 447.69 86.3604 441.15 81.4004 430.31C81.6271 430.304 81.7837 430.347 81.8704 430.44Z" fill="#51A746"/>
<path d="M210.62 441.441L223.54 442.441C233.66 451.221 244.667 458.281 256.56 463.621C289.093 478.207 321.06 476.837 352.46 459.511C363.28 453.537 372.267 448.207 379.42 443.521L425.69 443.511C425.717 450.857 425.717 458.064 425.69 465.131C425.663 470.631 425.233 474.557 424.4 476.911C420.79 487.061 411.34 493.051 400.99 495.841C397.423 496.801 392.823 497.584 387.19 498.191C383.55 498.584 378.893 498.784 373.22 498.791C302.393 498.924 252.977 498.977 224.97 498.951C217.323 498.944 210.94 499.034 205.82 499.221L205.63 492.621L205.5 477.151L205.33 450.461L205.67 442.011L210.62 441.441Z" fill="#083747"/>
<path d="M243.51 442.911C273.33 458.331 304.91 466.001 336.06 448.931C341.333 446.037 344.407 444.351 345.28 443.871C345.55 443.726 345.848 443.647 346.15 443.641L354.19 443.461L375.9 443.451L379.42 443.521C372.267 448.207 363.28 453.537 352.46 459.511C321.06 476.837 289.093 478.207 256.56 463.621C244.667 458.281 233.66 451.221 223.54 442.441C229.767 443.127 236.423 443.284 243.51 442.911Z" fill="#094A57"/>
<path d="M296.63 443.391L343.46 443.421L354.19 443.461L346.15 443.641C345.848 443.647 345.55 443.726 345.28 443.871C344.407 444.351 341.334 446.037 336.06 448.931C304.91 466.001 273.33 458.331 243.51 442.911L296.63 443.391Z" fill="#085A66"/>
<path d="M205.33 450.461L205.5 477.151C194.787 476.564 187.444 475.991 183.47 475.431C177.237 474.551 170.997 473.711 164.75 472.911C161.937 472.551 159.037 472.144 156.05 471.691C159.024 465.404 160.737 458.857 161.19 452.051C171.47 452.351 177.95 452.491 180.63 452.471C187.95 452.417 196.184 451.747 205.33 450.461Z" fill="#47B874"/>
<path d="M205.63 492.621L205.82 499.221L205.69 502.791C180.58 513.291 154.88 509.941 129.68 502.541C117.233 498.887 104.923 494.951 92.75 490.731C80.49 486.477 68.2433 482.097 56.01 477.591L56 460.361C88.04 470.251 119.8 481.701 135.49 486.641C150.55 491.387 165.397 494.284 180.03 495.331C187.51 495.864 195.777 496.111 204.83 496.071C204.969 496.071 205.103 496.019 205.206 495.925C205.31 495.831 205.375 495.701 205.39 495.561L205.63 492.621Z" fill="#0D6562"/>
<path d="M205.69 502.791L205.72 510.591L204.37 522.611C204.356 522.743 204.298 522.867 204.206 522.963C204.114 523.059 203.992 523.121 203.86 523.141C180.52 526.731 157.33 528.021 134.18 522.711C118.88 519.204 102.204 514.057 84.1502 507.271C75.3636 503.964 65.9836 499.657 56.0103 494.351V477.591C68.2436 482.097 80.4902 486.477 92.7502 490.731C104.924 494.951 117.234 498.887 129.68 502.541C154.88 509.941 180.58 513.291 205.69 502.791Z" fill="#094A57"/>
<path d="M205.72 510.591L205.83 538.721C205.83 538.851 205.78 538.975 205.69 539.067C205.6 539.159 205.478 539.211 205.35 539.211H56.2702C56.2305 539.211 56.1923 539.195 56.1642 539.167C56.1361 539.138 56.1202 539.1 56.1202 539.061L56.0103 494.351C65.9836 499.657 75.3636 503.964 84.1502 507.271C102.204 514.057 118.88 519.204 134.18 522.711C157.33 528.021 180.52 526.731 203.86 523.141C203.992 523.121 204.114 523.059 204.206 522.963C204.298 522.867 204.356 522.743 204.37 522.611L205.72 510.591Z" fill="#083747"/>
<path d="M373.523 715.567L374.923 727.557C374.935 727.666 374.912 727.777 374.858 727.872C374.804 727.968 374.722 728.043 374.623 728.087C360.873 733.897 334.433 733.697 332.573 713.137C332.386 711.09 332.293 707.85 332.293 703.417C332.286 649.103 332.259 619.29 332.213 613.977C332.173 610.043 332.043 606.603 331.823 603.657C331.819 603.588 331.828 603.52 331.851 603.455C331.873 603.391 331.908 603.331 331.953 603.28C331.999 603.229 332.054 603.187 332.116 603.157C332.177 603.128 332.244 603.11 332.313 603.107C340.246 602.693 347.493 602.06 354.053 601.207C356.073 600.94 358.036 600.543 359.943 600.017C360.006 599.998 360.073 599.995 360.138 600.007C360.204 600.02 360.265 600.047 360.319 600.088C360.372 600.129 360.415 600.181 360.445 600.242C360.476 600.302 360.492 600.369 360.493 600.437C360.646 638.923 360.633 673.03 360.453 702.757C360.433 707.063 360.729 709.777 361.343 710.897C363.753 715.277 367.963 715.787 372.773 714.997C372.859 714.981 372.948 714.984 373.033 715.005C373.118 715.025 373.198 715.064 373.269 715.117C373.339 715.17 373.398 715.238 373.442 715.315C373.485 715.393 373.513 715.478 373.523 715.567Z" fill="#414140"/>
<path d="M0.132575 720.527C0.10305 720.511 0.0769897 720.49 0.0559297 720.464C0.0348697 720.438 0.0192357 720.408 0.00992448 720.375C0.000613271 720.343 -0.0021896 720.308 0.00169999 720.274C0.00558958 720.24 0.0160847 720.207 0.0325685 720.177C3.09924 715.037 5.83924 709.157 8.25257 702.537C8.2806 702.464 8.32361 702.399 8.37868 702.344C8.43376 702.29 8.4996 702.248 8.57172 702.221C8.64384 702.195 8.72055 702.184 8.79662 702.19C8.8727 702.196 8.94636 702.219 9.01258 702.257C10.0526 702.85 13.2292 704.567 18.5426 707.407C21.0626 708.753 25.4026 710.257 31.5626 711.917C44.4026 715.377 56.1126 715.877 67.3526 709.967C71.5826 707.747 75.5326 701.957 75.0926 696.897C74.7859 693.363 73.7592 690.693 72.0126 688.887C68.1459 684.893 63.1692 681.88 57.0826 679.847C41.8726 674.787 28.3826 670.867 16.7826 662.497C11.6526 658.787 7.10258 652.877 5.74258 646.157C1.51258 625.387 14.9726 610.217 34.2526 605.117C54.0626 599.877 79.1226 601.237 98.2326 610.527C98.3441 610.58 98.4309 610.675 98.4755 610.792C98.52 610.909 98.519 611.039 98.4726 611.157L91.6526 627.827C91.6338 627.869 91.6069 627.908 91.5734 627.94C91.5399 627.973 91.5006 627.998 91.4577 628.015C91.4149 628.031 91.3693 628.039 91.3238 628.038C91.2782 628.037 91.2336 628.026 91.1926 628.007C77.6426 621.477 60.5626 617.397 45.8326 621.347C39.3726 623.08 35.1492 627.037 33.1626 633.217C33.0566 633.554 33.0059 633.906 33.0126 634.257C33.0659 639.13 35.0926 643.017 39.0926 645.917C39.6392 646.31 42.0292 647.53 46.2626 649.577C48.1892 650.503 50.6659 651.473 53.6926 652.487C60.9126 654.913 68.3359 657.683 75.9626 660.797C86.7826 665.207 99.5526 672.887 102.873 685.067C105.973 696.437 103.673 709.137 95.0026 717.467C78.6926 733.157 51.3926 734.027 30.5026 730.647C19.8026 728.913 9.67924 725.54 0.132575 720.527Z" fill="#414140"/>
<path d="M242.343 693.416C243.583 701.296 246.613 707.106 253.213 711.046C259.686 714.906 266.979 716.533 275.093 715.926C284.766 715.206 293.036 712.94 299.903 709.126C300.127 709.002 300.391 708.968 300.638 709.031C300.886 709.094 301.099 709.25 301.233 709.466L308.803 721.506C308.851 721.582 308.883 721.667 308.897 721.756C308.911 721.845 308.906 721.936 308.882 722.023C308.859 722.111 308.817 722.192 308.761 722.264C308.704 722.335 308.633 722.394 308.553 722.436C292.403 730.816 273.583 733.737 255.503 731.457C246.629 730.343 238.523 727.456 231.183 722.796C229.149 721.51 226.256 718.82 222.503 714.726C211.993 703.246 211.613 685.106 217.943 671.426C222.369 661.866 229.499 654.79 239.333 650.196C253.593 643.53 268.603 642.27 284.363 646.416C298.093 650.016 308.823 659.356 312.303 673.416C313.843 679.67 314.046 685.956 312.913 692.276C312.896 692.374 312.845 692.462 312.768 692.526C312.691 692.59 312.594 692.626 312.493 692.626H243.023C242.924 692.627 242.826 692.648 242.737 692.69C242.647 692.731 242.567 692.791 242.503 692.866C242.438 692.941 242.39 693.029 242.363 693.124C242.335 693.219 242.328 693.319 242.343 693.416ZM288.723 678.716C288.053 666.566 280.253 659.176 268.543 658.406C254.763 657.496 244.893 665.756 242.083 678.956C242.063 679.05 242.065 679.147 242.087 679.24C242.109 679.332 242.152 679.419 242.211 679.493C242.27 679.566 242.345 679.626 242.431 679.666C242.516 679.707 242.609 679.727 242.703 679.726H287.763C287.894 679.727 288.024 679.7 288.145 679.649C288.265 679.597 288.374 679.522 288.464 679.427C288.554 679.332 288.623 679.221 288.668 679.098C288.712 678.976 288.731 678.846 288.723 678.716Z" fill="#414140"/>
<path d="M446.493 678.016C446.813 676.283 446.783 674.206 446.403 671.786C445.173 663.916 439.123 660.426 431.863 659.576C418.463 658.006 407.263 661.016 395.633 666.266C395.585 666.292 395.529 666.298 395.475 666.283C395.421 666.268 395.374 666.234 395.343 666.186L387.593 653.846C387.545 653.77 387.514 653.684 387.503 653.594C387.491 653.505 387.499 653.414 387.525 653.327C387.552 653.241 387.596 653.162 387.656 653.094C387.716 653.027 387.79 652.973 387.873 652.936C406.633 644.776 427.773 641.526 447.923 645.786C456.603 647.626 465.623 651.966 470.163 659.696C472.79 664.17 474.099 668.92 474.093 673.946C474.073 691.58 474.06 704.913 474.053 713.946C474.043 719.296 475.293 724.136 477.123 728.906C477.162 729.008 477.176 729.118 477.163 729.226C477.15 729.335 477.11 729.438 477.048 729.528C476.986 729.617 476.903 729.691 476.806 729.741C476.709 729.791 476.602 729.817 476.493 729.816H450.663C450.543 729.816 450.427 729.777 450.333 729.704C450.239 729.632 450.172 729.531 450.143 729.416L447.703 720.006C447.676 719.9 447.619 719.803 447.539 719.728C447.459 719.652 447.359 719.601 447.251 719.58C447.143 719.559 447.032 719.569 446.929 719.609C446.827 719.649 446.738 719.718 446.673 719.806C445.633 721.193 444.803 722.096 444.183 722.516C437.863 726.756 430.91 729.64 423.323 731.166C409.303 733.986 392.813 731.156 383.803 719.366C381.843 716.793 380.636 713.696 380.183 710.076C379.376 703.65 381.053 698.333 385.213 694.126C389.659 689.633 394.663 686.463 400.223 684.616C406.213 682.616 411.583 681.116 418.103 680.226C427.11 679.006 436.333 678.47 445.773 678.616C445.943 678.619 446.109 678.56 446.241 678.45C446.373 678.34 446.462 678.186 446.493 678.016ZM445.673 690.986C442.746 691.013 438.37 691.146 432.543 691.386C429.83 691.5 425.82 692.236 420.513 693.596C415.3 694.93 411.526 697.233 409.193 700.506C403.163 708.996 411.383 716.156 419.543 716.806C428.583 717.52 436.436 715.01 443.103 709.276C444.163 708.363 445.086 707.06 445.873 705.366C446.084 704.918 446.193 704.43 446.193 703.936V691.496C446.193 691.429 446.179 691.361 446.153 691.299C446.127 691.236 446.088 691.18 446.04 691.132C445.992 691.085 445.934 691.047 445.871 691.022C445.808 690.997 445.741 690.985 445.673 690.986Z" fill="#414140"/>
<path d="M496.393 647.797C501.353 647.477 507.243 646.853 514.063 645.927C514.829 645.82 518.039 645.683 523.693 645.517C523.855 645.511 524.015 645.567 524.139 645.674C524.263 645.782 524.343 645.932 524.363 646.097L526.143 661.377C526.149 661.441 526.173 661.502 526.213 661.552C526.253 661.602 526.307 661.64 526.369 661.661C526.431 661.682 526.498 661.685 526.562 661.67C526.626 661.655 526.686 661.623 526.733 661.577C528.793 659.427 530.763 656.447 532.803 654.677C543.309 645.57 555.616 642.57 569.723 645.677C569.804 645.693 569.88 645.726 569.948 645.773C570.016 645.82 570.073 645.881 570.116 645.951C570.16 646.022 570.188 646.1 570.199 646.182C570.211 646.264 570.205 646.347 570.183 646.427L565.373 664.497C565.336 664.63 565.257 664.748 565.148 664.829C565.039 664.911 564.907 664.953 564.773 664.947C560.199 664.76 557.493 664.613 556.653 664.507C548.783 663.557 540.233 665.577 534.313 670.117C531.313 672.41 528.786 675.787 526.733 680.247C526.601 680.537 526.533 680.854 526.533 681.177L526.853 729.217C526.854 729.295 526.84 729.373 526.811 729.445C526.782 729.518 526.738 729.584 526.683 729.64C526.629 729.696 526.563 729.74 526.491 729.771C526.419 729.801 526.341 729.817 526.263 729.817H499.003C498.905 729.817 498.808 729.797 498.717 729.759C498.627 729.722 498.545 729.666 498.476 729.596C498.407 729.526 498.353 729.444 498.316 729.353C498.28 729.262 498.261 729.165 498.263 729.067C498.443 711.233 498.479 689.027 498.373 662.447C498.353 657.507 497.593 652.77 496.093 648.237C496.075 648.188 496.07 648.135 496.076 648.084C496.083 648.032 496.102 647.983 496.131 647.94C496.16 647.898 496.199 647.862 496.245 647.837C496.29 647.812 496.341 647.798 496.393 647.797Z" fill="#414140"/>
<path d="M212.673 646.037C212.737 646.037 212.801 646.054 212.857 646.086C212.913 646.118 212.961 646.163 212.996 646.217C213.031 646.272 213.051 646.334 213.056 646.399C213.061 646.463 213.049 646.528 213.023 646.587L173.483 729.167C173.39 729.364 173.242 729.531 173.058 729.648C172.874 729.764 172.661 729.827 172.443 729.827H146.383C146.213 729.827 146.046 729.778 145.903 729.686C145.759 729.593 145.645 729.462 145.573 729.307C133.523 703.177 123.013 681.527 110.953 655.337C109.746 652.71 108.079 649.73 105.953 646.397C105.926 646.353 105.912 646.304 105.911 646.253C105.91 646.202 105.922 646.152 105.946 646.108C105.97 646.063 106.006 646.026 106.049 645.999C106.092 645.973 106.142 645.958 106.193 645.957H134.593C134.73 645.956 134.864 645.996 134.98 646.07C135.095 646.145 135.186 646.251 135.243 646.377C146.433 671.177 153.483 686.627 160.833 705.647C160.856 705.705 160.896 705.755 160.948 705.791C161 705.827 161.061 705.847 161.124 705.848C161.187 705.849 161.249 705.831 161.302 705.797C161.355 705.763 161.397 705.714 161.423 705.657L185.583 646.577C185.648 646.417 185.76 646.281 185.904 646.184C186.048 646.088 186.218 646.037 186.393 646.037H212.673Z" fill="#414140"/>
</svg>
